<?xml version="1.0" encoding="utf-8"?>
<!-- Generator: Adobe Illustrator 24.0.0, SVG Export Plug-In . SVG Version: 6.00 Build 0)  -->
<svg version="1.1" id="Layer_1" xmlns="http://www.w3.org/2000/svg" xmlns:xlink="http://www.w3.org/1999/xlink" x="0px" y="0px"
	 viewBox="0 0 100 40" style="enable-background:new 0 0 100 40;" xml:space="preserve">
<g>
	<path d="M27.3,23.24v0.62h-9.7v-0.62h0.8c0.4,0,0.75-0.03,1.06-0.09c0.31-0.06,0.56-0.2,0.76-0.42c0.2-0.22,0.35-0.57,0.46-1.02
		c0.11-0.46,0.16-1.08,0.16-1.86V5.21c0-0.51-0.01-0.94-0.04-1.28c-0.03-0.34-0.07-0.62-0.13-0.84c-0.06-0.22-0.15-0.39-0.26-0.51
		c-0.12-0.12-0.27-0.24-0.47-0.36c-0.5-0.27-1.01-0.4-1.55-0.4h-0.8V1.2h9.7v0.62h-0.8c-0.4,0-0.75,0.03-1.06,0.1
		c-0.31,0.07-0.56,0.21-0.76,0.44c-0.2,0.22-0.35,0.56-0.46,1.02c-0.11,0.46-0.16,1.07-0.16,1.83v14.64c0,0.53,0.01,0.96,0.02,1.3
		c0.02,0.33,0.06,0.61,0.13,0.82c0.07,0.22,0.16,0.39,0.29,0.51c0.13,0.13,0.29,0.25,0.49,0.36c0.47,0.27,0.97,0.4,1.52,0.4H27.3z"
		/>
	<path d="M60.16,1.2v0.62c-0.45,0-0.82,0.04-1.11,0.12c-0.29,0.08-0.56,0.27-0.81,0.56c-0.25,0.29-0.5,0.72-0.75,1.3
		c-0.25,0.57-0.54,1.34-0.87,2.31l-6.31,18.28h-0.67L44.48,9.9l-5.11,14.49h-0.62L32.01,5.56c-0.25-0.7-0.45-1.25-0.6-1.66
		s-0.27-0.68-0.35-0.81c-0.23-0.43-0.54-0.75-0.91-0.96c-0.37-0.21-0.89-0.31-1.56-0.31V1.2h8.38v0.62h-0.4
		c-0.58,0-1.03,0.13-1.35,0.4c-0.32,0.27-0.47,0.59-0.47,0.97c0,0.4,0.25,1.3,0.75,2.69l4.46,12.72l3.74-10.82l-1.2-3.42
		c-0.18-0.42-0.37-0.78-0.55-1.1c-0.18-0.32-0.39-0.58-0.62-0.8c-0.23-0.22-0.51-0.38-0.82-0.49c-0.32-0.11-0.7-0.16-1.15-0.16V1.2
		h8.8v0.62h-0.6c-0.63,0-1.09,0.13-1.37,0.4c-0.28,0.27-0.42,0.63-0.42,1.1c0,0.56,0.25,1.55,0.75,2.97l4.34,12.32l4.31-12.49
		c0.23-0.7,0.42-1.28,0.55-1.75c0.13-0.46,0.2-0.84,0.2-1.12c0-0.53-0.23-0.9-0.7-1.11c-0.47-0.21-1.07-0.31-1.82-0.31V1.2H60.16z"
		/>
	<path d="M81.03,0.7l0.52,7.7h-0.52c-0.7-2.31-1.68-3.97-2.95-4.99c-1.27-1.01-2.8-1.52-4.6-1.52c-1.16,0-2.24,0.22-3.22,0.66
		C69.28,3,68.43,3.68,67.73,4.59c-0.71,0.91-1.26,2.06-1.66,3.44c-0.4,1.38-0.6,3.01-0.6,4.89c0,1.51,0.19,2.88,0.56,4.11
		c0.37,1.23,0.92,2.28,1.65,3.15c0.72,0.87,1.61,1.55,2.66,2.02c1.05,0.47,2.25,0.71,3.62,0.71c1.43,0,2.73-0.32,3.89-0.95
		c1.11-0.58,2.35-1.83,3.71-3.74l0.52,0.32c-1.15,2.01-2.47,3.49-3.98,4.43c-1.5,0.94-3.3,1.41-5.4,1.41
		c-1.61,0-3.09-0.28-4.44-0.85c-1.35-0.56-2.51-1.36-3.48-2.38s-1.73-2.24-2.28-3.64c-0.55-1.4-0.82-2.95-0.82-4.63
		c0-2.28,0.51-4.35,1.52-6.23c1-1.9,2.38-3.36,4.16-4.39c1.8-1.05,3.74-1.57,5.83-1.57c1.65,0,3.26,0.4,4.84,1.2
		c0.46,0.25,0.8,0.37,1,0.37c0.37,0,0.67-0.15,0.91-0.45c0.24-0.3,0.41-0.67,0.51-1.12H81.03z"/>
</g>
<g>
	<path d="M0.3,38.84l1.21-1.25c0.66,0.5,1.52,0.84,2.29,0.84c0.88,0,1.31-0.3,1.31-0.78c0-0.51-0.53-0.67-1.34-0.96l-1.21-0.45
		c-0.97-0.34-1.88-1.02-1.88-2.19c0-1.33,1.38-2.4,3.32-2.4c1.07,0,2.2,0.37,3,1.05l-1.06,1.15c-0.61-0.41-1.2-0.63-1.93-0.63
		c-0.73,0-1.19,0.26-1.19,0.72c0,0.49,0.61,0.67,1.42,0.95l1.19,0.42c1.14,0.4,1.85,1.05,1.85,2.19c0,1.34-1.29,2.49-3.51,2.49
		C2.54,40,1.25,39.6,0.3,38.84z"/>
	<path d="M8.4,35.88c0-2.67,2.04-4.22,4.4-4.22c1.2,0,2.17,0.49,2.8,1.04l-1.11,1.17c-0.47-0.38-0.97-0.64-1.65-0.64
		c-1.28,0-2.29,0.97-2.29,2.59c0,1.65,0.89,2.61,2.25,2.61c0.77,0,1.37-0.33,1.82-0.75l1.11,1.14C14.98,39.6,13.95,40,12.74,40
		C10.38,40,8.4,38.58,8.4,35.88z"/>
	<path d="M17.16,31.81h2.11v3.1h3.22v-3.1h2.11v8.05h-2.11v-3.36h-3.22v3.36h-2.11V31.81z"/>
	<path d="M26.79,31.81h5.84v1.53H28.9v1.62h3.18v1.53H28.9v1.85h3.88v1.53h-5.98V31.81z"/>
	<path d="M34.62,31.81h5.88v1.53h-3.77v1.87h3.22v1.53h-3.22v3.13h-2.11V31.81z"/>
	<path d="M42.11,31.81h5.88v1.53h-3.77v1.87h3.22v1.53h-3.22v3.13h-2.11V31.81z"/>
	<path d="M49.6,31.81h2.11v3.1h3.22v-3.1h2.11v8.05h-2.11v-3.36H51.7v3.36H49.6V31.81z"/>
	<path d="M60.96,31.81h2.52l2.93,8.05h-2.23l-1.22-4.07c-0.26-0.8-0.51-1.76-0.76-2.6h-0.06c-0.23,0.85-0.47,1.79-0.73,2.6
		l-1.22,4.07h-2.15L60.96,31.81z M59.97,36.52h4.48v1.41h-4.48V36.52z"/>
	<path d="M67.21,36.12v-4.32h2.11v4.5c0,1.58,0.58,2.12,1.62,2.12c1.05,0,1.65-0.54,1.65-2.12v-4.5h2.03v4.32
		c0,2.7-1.27,3.88-3.68,3.88C68.52,40,67.21,38.82,67.21,36.12z"/>
	<path d="M76.02,38.84l1.21-1.25c0.66,0.5,1.52,0.84,2.29,0.84c0.88,0,1.31-0.3,1.31-0.78c0-0.51-0.53-0.67-1.34-0.96l-1.21-0.45
		c-0.97-0.34-1.88-1.02-1.88-2.19c0-1.33,1.38-2.4,3.32-2.4c1.07,0,2.2,0.37,3,1.05l-1.06,1.15c-0.61-0.41-1.2-0.63-1.93-0.63
		c-0.73,0-1.19,0.26-1.19,0.72c0,0.49,0.61,0.67,1.42,0.95l1.19,0.42c1.14,0.4,1.85,1.05,1.85,2.19c0,1.34-1.29,2.49-3.51,2.49
		C78.26,40,76.97,39.6,76.02,38.84z"/>
	<path d="M84.57,31.81h5.84v1.53h-3.73v1.62h3.18v1.53h-3.18v1.85h3.88v1.53h-5.98V31.81z"/>
	<path d="M92.4,31.81h2.16l2.43,4l0.92,1.77h0.06c-0.1-0.85-0.27-1.98-0.27-2.93v-2.84h2.01v8.05h-2.16l-2.43-4.01l-0.92-1.76h-0.06
		c0.1,0.89,0.27,1.96,0.27,2.91v2.86H92.4V31.81z"/>
</g>
</svg>
